<svg xmlns="http://www.w3.org/2000/svg" viewBox="149.451 228.991 198.762 41.307">
  <g fill="none" fill-rule="evenodd" transform="matrix(1, 0, 0, 1, 150.736, 228.837)" style="">
    <polygon fill="#AC6AFF" fill-rule="nonzero" points="35.213 12.664 35.206 7.451 25.586 1.163 25.586 5.184 31.931 9.362 31.936 12.565 28.988 14.56 26.977 13.093 26.977 10.609 23.7 8.366 23.7 12.89 18.505 16.077 18.495 24.497 14.822 26.565 12.937 25.089 12.937 22.651 15.169 21.121 15.169 21.101 15.169 17.329 11.152 20.017 8.081 18.019 5.276 19.856 9.659 22.857 9.659 24.698 6.5 26.836 3.277 24.655 3.277 17.392 8.062 14.154 8.066 11.038 14.203 14.989 19.361 11.557 16.216 9.722 14.159 11.11 9.677 8.145 14.731 5.198 19.11 7.766 19.11 3.938 14.736 1.374 4.794 7.17 4.787 12.385 0 15.628 0 26.419 4.787 29.662 4.794 34.877 14.414 41.163 14.414 37.143 8.069 32.965 8.064 29.763 11.012 27.767 13.023 29.235 13.023 31.719 16.3 33.961 16.3 29.437 21.569 26.25 21.628 17.829 25.178 15.761 27.063 17.239 27.063 19.676 24.831 21.205 24.831 21.225 24.831 24.999 28.848 22.311 31.919 24.308 34.724 22.472 30.34 19.468 30.34 17.628 33.5 15.492 36.723 17.673 36.723 24.934 31.939 28.174 31.934 31.29 25.797 27.336 20.639 30.746 23.784 32.579 25.841 31.218 30.323 34.182 25.269 37.128 20.89 34.561 20.89 38.387 25.264 40.952 35.206 35.157 35.213 29.941 40 26.7 40 15.906"></polygon>
    <text style="fill: rgb(255, 255, 255); font-family: Arial; font-size: 28px; font-weight: 700; white-space: pre;" x="54.364" y="32.255">AIR-WALL</text>
  </g>
  <defs></defs>
</svg>